  <svg
    viewBox="0 0 24 24"
    aria-hidden="true"
    focusable="false"
    fill="black"
    xmlns="http://www.w3.org/2000/svg"
    className="hPhvO h-20 w-20 p-3 hover:text-html  text-night hover:scale-105 transform duration-200"
  >
    <path d="M13.1 3.5l.7 1.1.7-1.1V5h1V2h-1l-.7 1.1-.6-1.1h-1.1v3h1zM18.4 5V4H17V2h-1v3zM9.8 5h1V3h.9V2H8.9v1h.9zM6.6 4h.9v1h1V2h-1v1h-.9V2h-1v3h1zM5 6l1.2 14.4L12 22l5.8-1.6L19 6H5zm11.3 4.6H9.5l.2 1.8h6.4l-.5 5.5-3.6 1-3.6-1-.3-2.9h1.8l.1 1.5 2 .5 2-.5.2-2.3H8l-.5-5.3h9l-.2 1.7z"></path>
  </svg>
