<?xml version="1.0" standalone="no"?>
<!DOCTYPE svg PUBLIC "-//W3C//DTD SVG 20010904//EN"
 "http://www.w3.org/TR/2001/REC-SVG-20010904/DTD/svg10.dtd">
<svg version="1.0" xmlns="http://www.w3.org/2000/svg"
 width="400.000000pt" height="400.000000pt" viewBox="0 0 400.000000 400.000000"
 preserveAspectRatio="xMidYMid meet">

<g transform="translate(0.000000,400.000000) scale(0.100000,-0.100000)"
fill="#000000" stroke="none">
<path d="M1901 3820 c-88 -19 -174 -90 -213 -176 -47 -108 -28 -228 50 -315
24 -27 66 -61 92 -74 l47 -24 6 -103 c6 -121 29 -197 83 -275 72 -105 171
-164 323 -193 113 -21 143 -34 187 -82 46 -48 66 -94 72 -164 11 -137 -63
-238 -212 -288 -27 -9 -145 -25 -265 -37 -469 -43 -521 -52 -630 -110 -65 -35
-149 -123 -178 -185 -55 -121 -52 -249 8 -372 58 -118 166 -199 299 -222 120
-21 166 -39 214 -81 72 -63 99 -125 104 -235 l4 -92 -53 -27 c-65 -32 -90 -55
-128 -114 -101 -158 -29 -375 147 -441 192 -72 397 60 410 264 6 101 -21 169
-93 235 -30 27 -71 55 -90 61 l-35 12 0 72 c0 156 -44 268 -141 361 -72 69
-155 108 -273 130 -99 18 -126 29 -173 73 -96 89 -108 262 -24 363 37 44 128
93 201 108 30 6 197 25 370 41 326 30 369 39 478 94 71 36 148 117 186 196 29
60 31 73 31 170 0 96 -3 110 -31 170 -40 85 -117 169 -188 203 -53 26 -81 34
-208 57 -103 20 -193 102 -224 208 -8 25 -14 80 -14 123 l0 78 57 26 c65 30
111 75 145 143 31 64 32 186 2 253 -56 122 -208 197 -343 169z"/>
<path d="M1244 2938 c-11 -18 7 -131 32 -208 39 -116 94 -199 242 -361 153
-167 132 -156 275 -140 l58 6 -151 165 c-83 91 -171 193 -195 226 -53 73 -92
169 -102 256 l-8 63 -73 2 c-39 0 -75 -3 -78 -9z"/>
<path d="M2108 1783 c-21 -2 -38 -7 -38 -11 0 -4 75 -88 166 -187 104 -113
179 -203 202 -245 39 -70 70 -171 71 -232 l1 -38 80 0 80 0 0 28 c0 96 -46
240 -110 346 -32 52 -44 66 -213 250 l-89 96 -56 -2 c-31 -1 -74 -3 -94 -5z"/>
</g>
</svg>
